<svg width="108" height="95" viewBox="0 0 108 95" fill="none" xmlns="http://www.w3.org/2000/svg">
<path fill-rule="evenodd" clip-rule="evenodd" d="M45.7789 0.172737C43.9883 0.627377 41.6527 2.10916 40.4352 3.56301L39.9575 4.13347L39.0657 3.94337C37.7919 3.67196 35.2534 3.68848 34.1487 3.97554C31.482 4.66825 29.3568 6.4716 27.9356 9.24725L27.2562 10.5743L26.065 10.747C23.5854 11.1063 21.6829 12.0054 20.1509 13.5413C18.6166 15.0793 17.7223 16.9842 17.3622 19.4807L17.1885 20.6853L16.162 21.1757C14.0406 22.1892 12.37 23.728 11.4228 25.5413C10.6589 27.0035 10.387 28.1317 10.387 29.8397V31.2444H6.58702H2.78685L2.83105 32.0121L2.8751 32.7799L18.6283 32.8138L34.3815 32.8476L34.9649 32.016C35.8712 30.7243 38.7557 27.9112 40.2889 26.8241C42.8451 25.0114 46.1638 23.5524 49.2595 22.8803C50.9547 22.5122 55.1433 22.3631 56.9902 22.6051C63.0662 23.401 68.8933 26.727 72.5975 31.5135L73.6185 32.8328L89.3353 32.8429L105.052 32.853V32.0487V31.2444H101.332H97.613V29.9355C97.613 28.2408 97.4197 27.3556 96.7193 25.8434C96.2411 24.811 95.9408 24.4049 94.875 23.3507C93.852 22.3388 93.3258 21.9503 92.1982 21.3744L90.7946 20.6576L90.6352 19.5267C89.938 14.5839 86.8378 11.4576 81.9276 10.7459L80.7438 10.5743L80.0323 9.17414C79.4612 8.05033 79.0747 7.52492 78.0742 6.51181C76.7158 5.13663 75.4997 4.40371 73.8766 3.98212C72.8326 3.71086 69.9117 3.69199 68.8157 3.94936L68.0969 4.11812L66.9824 3.02136C65.7659 1.82415 64.2862 0.868223 62.8626 0.359477C62.1073 0.0895295 61.6345 0.0322072 60.1262 0.0284051C58.0566 0.0229945 57.147 0.249803 55.1269 1.2749L53.9931 1.85033L52.8661 1.27826C51.0336 0.348071 50.0461 0.0781239 48.2384 0.0131963C47.1293 -0.0265793 46.3699 0.0227019 45.7789 0.172737ZM59.6865 6.59838C62.204 6.95621 64.4608 7.49538 67.0683 8.36225C76.0938 11.3627 83.688 17.3148 88.7617 25.3647C89.6226 26.7305 91.7785 30.8373 91.7785 31.1114C91.7785 31.1896 88.5192 31.2444 83.8654 31.2443H75.9523L75.9402 30.5497C75.9332 30.1493 75.7964 29.5987 75.6172 29.2494C75.0021 28.0519 73.4534 27.1326 72.4299 27.358C72.0229 27.4475 72.0138 27.4355 72.0005 26.8032C71.9586 24.8233 69.5754 23.2808 67.683 24.0089C67.5431 24.0626 67.428 23.8846 67.3055 23.425C66.8311 21.6471 64.129 20.5491 62.7475 21.5731L62.3503 21.8673L62.0849 21.277C61.7624 20.5603 61.1002 20.0296 60.1825 19.7528C58.9907 19.3931 57.9692 19.5649 57.2403 20.2475L56.8112 20.6494L56.5102 20.1889C55.5511 18.7222 52.4489 18.7222 51.4898 20.1889L51.1888 20.6494L50.778 20.2648C49.4628 19.0331 46.754 19.5787 45.9157 21.244L45.6129 21.8454L45.2011 21.5364C44.593 21.0802 43.2245 21.1065 42.27 21.593C41.4638 22.0038 40.7797 22.8416 40.6398 23.5888C40.5586 24.023 40.5061 24.073 40.2354 23.9737C40.0643 23.911 39.5517 23.8636 39.0965 23.8684C38.4429 23.8753 38.1212 23.9684 37.5687 24.3109C36.6594 24.8746 35.9937 25.9249 35.9892 26.8033C35.986 27.4361 35.9826 27.4403 35.5351 27.3567C33.9678 27.0635 32.0904 28.7883 32.0598 30.5497L32.0477 31.2443H24.1248L16.2019 31.2444L16.3022 30.9154C16.5273 30.1778 18.3438 26.7701 19.3693 25.1623C21.0207 22.5726 22.6321 20.5776 24.9733 18.2234C29.5932 13.578 35.009 10.2568 41.2498 8.24219C44.2653 7.26871 47.0133 6.70557 50.5722 6.33136C51.9207 6.18966 58.0801 6.37011 59.6865 6.59838ZM49.2595 8.80446C47.8154 8.98871 46.4777 9.14489 46.2868 9.15133C45.9622 9.16244 45.9444 9.2066 46.0145 9.82839C46.0556 10.1944 46.1133 10.5141 46.1428 10.5391C46.1723 10.5639 46.7422 10.5211 47.4092 10.4437C48.0762 10.3665 48.6626 10.344 48.7123 10.3937C48.7841 10.4657 49.5914 16.8983 49.6176 17.6054C49.6222 17.7338 49.8226 17.7617 50.317 17.7026C50.6981 17.6571 51.0807 17.5989 51.1672 17.5733C51.2751 17.5415 51.197 16.4299 50.9187 14.0396C50.6952 12.1216 50.5095 10.4474 50.5059 10.3193C50.5008 10.1349 50.7604 10.0543 51.7461 9.93455C52.4318 9.85105 53.0291 9.74664 53.0733 9.70219C53.1175 9.65788 53.1086 9.35386 53.0535 9.02673C52.9569 8.45306 52.9343 8.43274 52.4191 8.45072C52.1254 8.4611 50.7035 8.6202 49.2595 8.80446ZM54.8252 10.4427C54.7737 11.4681 54.688 13.4753 54.6349 14.9028L54.5384 17.4985H55.3526H56.1669L56.2453 16.7308C56.2884 16.3086 56.3596 14.943 56.4034 13.6964C56.4473 12.4498 56.5237 10.7883 56.5732 10.004L56.6632 8.57824H55.7909H54.9188L54.8252 10.4427ZM59.1968 9.12661C59.0864 9.50843 57.6566 16.7847 57.612 17.1912C57.5779 17.5034 57.6581 17.5615 58.3432 17.7194C58.7665 17.8171 59.1374 17.8568 59.1675 17.8075C59.1977 17.7582 59.3692 16.9776 59.5488 16.0727C59.9267 14.1693 59.7572 14.2713 61.7924 14.7224C62.5082 14.881 63.1118 14.9929 63.1336 14.971C63.1555 14.949 63.2366 14.6488 63.3139 14.304C63.4159 13.8488 63.4081 13.6631 63.2855 13.6261C63.1924 13.598 62.4929 13.4617 61.7307 13.3229C60.9686 13.1842 60.3049 13.0487 60.2558 13.0218C60.1558 12.9671 60.5876 10.6958 60.7234 10.5617C60.7711 10.5147 61.5885 10.6413 62.5398 10.8432C63.491 11.0452 64.3462 11.2104 64.44 11.2104C64.5956 11.2104 64.8748 10.073 64.7499 9.94786C64.6844 9.88205 59.7126 8.8707 59.455 8.8707C59.3536 8.8707 59.2375 8.98579 59.1968 9.12661ZM41.9663 10.4841C40.9812 10.6956 38.464 11.6067 38.4929 11.7414C38.6049 12.2624 41.1952 19.7816 41.2983 19.885C41.4001 19.9871 42.9146 19.6237 42.9144 19.4975C42.9144 19.4837 42.6847 18.8283 42.4039 18.0409C42.1231 17.2534 41.8934 16.5196 41.8934 16.4101C41.8934 16.3005 42.0875 16.1432 42.3249 16.0601C42.8211 15.8867 42.9923 15.9823 44.8842 17.4896C45.5512 18.021 46.1204 18.3696 46.2561 18.33C46.3836 18.2927 46.7998 18.1754 47.1809 18.0694C47.5621 17.9634 47.8716 17.8408 47.8688 17.7972C47.8644 17.7272 44.876 15.4704 44.3836 15.1653C44.2358 15.0736 44.2653 14.9743 44.5145 14.7244C45.2729 13.9642 45.4478 12.7396 44.9462 11.7008C44.4495 10.6723 43.2918 10.1997 41.9663 10.4841ZM66.7041 11.1008C64.6548 16.508 63.7836 19.0233 63.9283 19.113C64.3357 19.3654 65.2481 19.5868 65.3618 19.4609C65.4636 19.3485 68.4404 11.4476 68.4404 11.29C68.4404 11.228 67.1301 10.7717 66.9522 10.7717C66.8842 10.7717 66.7726 10.9197 66.7041 11.1008ZM43.2174 12.2228C44.0895 13.0971 43.5907 14.3251 42.1714 14.7977C41.7674 14.9322 41.4173 15.0191 41.3932 14.9909C41.306 14.8879 40.5806 12.5938 40.5806 12.4208C40.5806 12.2208 41.7484 11.8211 42.3787 11.8056C42.6491 11.7989 42.9378 11.9425 43.2174 12.2228ZM69.2427 15.2589C68.3602 16.8384 67.3953 18.5658 67.0983 19.0977L66.5585 20.0646L68.9393 21.4137C70.2487 22.1557 71.3623 22.7629 71.414 22.7629C71.5152 22.7629 72.0855 21.8751 72.0864 21.716C72.0867 21.6631 71.3486 21.2075 70.446 20.7036C69.5436 20.1998 68.7855 19.774 68.7617 19.7573C68.6919 19.7085 69.7662 17.8002 69.9157 17.7076C69.9905 17.6611 70.5917 17.9329 71.2518 18.3115C71.9117 18.6901 72.4983 19.0265 72.5555 19.0586C72.6125 19.091 72.7919 18.8565 72.9541 18.5378L73.2492 17.9581L72.7775 17.6766C72.518 17.5217 71.9284 17.1831 71.4671 16.9242C71.0057 16.6652 70.6284 16.4223 70.6284 16.3845C70.6284 16.1963 71.7299 14.4276 71.8472 14.4276C71.9217 14.4276 72.6691 14.8224 73.508 15.305C74.3468 15.7875 75.091 16.1824 75.1616 16.1824C75.2322 16.1824 75.4167 15.9333 75.5716 15.6292L75.8532 15.0758L75.3922 14.8073C73.6781 13.8089 71.0728 12.3809 70.9703 12.3837C70.9026 12.3856 70.1251 13.6794 69.2427 15.2589ZM33.798 14.1459C32.5144 14.936 31.4811 15.6533 31.5018 15.7397C31.5351 15.8788 35.8596 23.0458 35.993 23.1829C36.037 23.2282 37.8286 22.1657 40.326 20.613L40.8735 20.2725L40.5 19.7065L40.1264 19.1405L38.4503 20.1648C37.5285 20.7282 36.7573 21.1648 36.7364 21.1352C36.7156 21.1055 36.4259 20.6374 36.0927 20.0949L35.487 19.1087L36.247 18.6259C36.6649 18.3604 37.2532 17.9927 37.554 17.8089C37.8549 17.6251 38.101 17.4508 38.101 17.4219C38.101 17.3928 37.9618 17.1325 37.7917 16.8435C37.5066 16.3589 37.4583 16.3334 37.1718 16.5158C36.3064 17.0669 35.0902 17.7727 34.9319 17.8155C34.7417 17.8671 33.5605 16.0385 33.6698 15.8614C33.7052 15.8039 34.4507 15.324 35.3265 14.7951L36.9187 13.8333L36.62 13.3257C36.4556 13.0465 36.2785 12.7936 36.2265 12.7637C36.1744 12.7338 35.0816 13.3558 33.798 14.1459ZM74.8838 19.7047C73.2532 21.4706 71.9404 22.9773 71.9665 23.0529C72.0822 23.387 74.9768 25.8895 75.6475 26.2352C77.2618 27.0674 79.3459 26.6239 80.6901 25.1618C81.5894 24.1837 81.9281 23.3405 81.9181 22.1048C81.9059 20.5862 81.5355 19.9377 79.6026 18.0499C78.7181 17.1861 77.9616 16.4827 77.9215 16.4867C77.8814 16.4906 76.5144 17.9388 74.8838 19.7047ZM28.6199 18.0211C27.5689 18.5104 26.5358 19.6183 26.1329 20.6881C25.3212 22.8432 26.3965 25.2818 28.6581 26.4148C29.8085 26.9911 31.0946 27.0272 32.194 26.5139C33.2264 26.0319 34.3876 24.7198 34.6828 23.702C35.0069 22.5843 34.9436 22.4065 34.2026 22.3526C33.6341 22.3112 33.5823 22.3381 33.4993 22.7181C33.2639 23.796 32.5025 24.7673 31.6371 25.0938C30.5806 25.4925 29.3381 25.1028 28.4234 24.0857C27.4075 22.9561 27.2015 21.9137 27.7641 20.7487C28.1169 20.0178 29.0026 19.3043 29.7258 19.1683C30.3729 19.0465 30.5243 18.8317 30.4194 18.1839C30.3403 17.696 30.2888 17.6449 29.8771 17.6462C29.6269 17.6469 29.0611 17.8157 28.6199 18.0211ZM79.944 20.3701C80.3574 20.9376 80.4992 21.9489 80.2651 22.6601C80.0406 23.3418 79.048 24.4577 78.3471 24.8163C77.6662 25.1645 76.6122 25.1876 75.9951 24.8676C75.477 24.599 74.1291 23.3753 74.1291 23.1735C74.1291 23.0997 75.0551 22.0539 76.1872 20.8499L78.2453 18.6607L78.9221 19.2784C79.2944 19.6181 79.7543 20.1095 79.944 20.3701ZM50.1998 23.7896C45.0624 24.6974 40.2435 27.4345 36.8519 31.3714C36.2552 32.0638 35.7672 32.6804 35.7672 32.7417C35.7672 32.8028 43.9719 32.853 54 32.853C64.0281 32.853 72.2328 32.8028 72.2328 32.7417C72.2328 32.4435 69.8362 29.9041 68.5387 28.8273C65.2055 26.0612 61.3967 24.3293 57.3086 23.7207C55.2541 23.4149 52.1505 23.4449 50.1998 23.7896ZM29.2713 35.7841C27.593 35.9495 26.4087 36.286 24.8274 37.047C23.6328 37.622 23.2603 37.898 22.1256 39.0491C20.6297 40.5664 19.8035 42.0052 19.2597 44.0399C18.8319 45.6404 18.7979 49.102 19.195 50.6204C20.2205 54.5415 22.837 57.3696 26.6507 58.6788C27.6928 59.0365 28.0752 59.086 30.2244 59.1404C32.2737 59.1923 32.856 59.155 34.1456 58.889C35.8698 58.5333 36.9917 58.1115 38.2486 57.3461L39.122 56.8141V52.1453V47.4763H35.3296H31.5371V48.8572C31.5371 50.6458 31.5929 50.6935 33.6847 50.6935C34.5091 50.6935 35.185 50.7428 35.1868 50.8032C35.1884 50.8635 35.199 51.8012 35.2103 52.887L35.2307 54.8611L34.0346 55.2675C30.8856 56.3377 27.5576 55.7475 25.5581 53.7644C21.9092 50.1452 22.7273 42.4162 26.9887 40.2514C28.1184 39.6774 29.2574 39.4335 30.8078 39.4335C32.5754 39.4335 33.5713 39.6879 35.4143 40.6102C37.2484 41.528 37.3711 41.5001 38.3934 39.9298C38.7941 39.3145 39.121 38.7702 39.1198 38.7202C39.1146 38.5048 37.4864 37.4412 36.2777 36.8637C34.3071 35.9223 31.7965 35.5354 29.2713 35.7841ZM43.0959 47.4398L43.1332 58.9557L44.9918 58.9966L46.8502 59.0376L46.888 50.7665L46.9257 42.4955L50.4353 49.0348C52.7845 53.4121 54.078 55.6737 54.3477 55.8757C54.9061 56.2935 56.2965 56.2986 56.8483 55.8848C57.1038 55.6932 58.4281 53.3511 60.688 49.0944L64.1375 42.5965L64.1751 50.8127L64.2129 59.0288H66.1078H68.0028V47.4763V35.9239H66.0418C64.2145 35.9239 64.0558 35.9463 63.7129 36.2529C63.3623 36.5664 57.3582 47.6664 56.1513 50.2324L55.5772 51.4529L55.0994 50.3786C54.8365 49.7877 53.0462 46.3759 51.121 42.7969C48.6588 38.2201 47.5173 36.236 47.273 36.1089C47.0492 35.9925 46.2379 35.9274 44.9921 35.9261L43.0585 35.9239L43.0959 47.4398ZM72.7444 36.0921C72.7036 36.2006 72.6868 41.3894 72.7069 47.6226L72.7434 58.9557L74.8948 58.9962L77.0463 59.0365V54.9382V50.8397L79.5625 50.8387C83.3394 50.8371 85.2202 50.2864 86.9924 48.6624C89.7537 46.1323 89.8881 40.9435 87.2604 38.3091C86.357 37.4035 85.1563 36.7463 83.656 36.3366C82.6291 36.0562 82.0357 36.0188 77.6673 35.96C73.6854 35.9063 72.8051 35.9299 72.7444 36.0921ZM82.2974 39.5844C83.9585 40.2043 84.6523 41.1788 84.7492 43.0276C84.8548 45.0443 84.2413 46.2666 82.7569 46.9974C81.9724 47.3838 81.8153 47.4056 79.4895 47.4521L77.0463 47.5011V43.377V39.2529L79.4166 39.3234C80.8306 39.3654 81.9928 39.4708 82.2974 39.5844ZM6.28129 43.2721L5.47773 45.7947L2.73886 45.8678L0 45.9409L2.19538 47.5139C4.32862 49.0422 4.38711 49.0982 4.25963 49.4881C3.25216 52.5682 2.79108 54.0944 2.85016 54.1537C2.88983 54.1934 3.87937 53.5238 5.04904 52.6656L7.17572 51.105L9.36483 52.7255C10.5688 53.6168 11.5539 54.2913 11.5539 54.2243C11.5539 54.1575 11.197 52.9937 10.7606 51.6384C10.3243 50.2831 9.99306 49.1324 10.0247 49.0813C10.0562 49.0301 11.038 48.3026 12.2064 47.4645L14.3307 45.9409L11.5964 45.8678L8.86204 45.7947L8.05644 43.2729C7.61345 41.8858 7.21364 40.7506 7.16784 40.7503C7.12219 40.7499 6.72325 41.8847 6.28129 43.2721ZM99.9377 43.2721L99.1387 45.7947L96.3912 45.8678L93.6439 45.9409L95.8416 47.5155C97.0504 48.3815 98.0142 49.1712 97.9836 49.2703C97.9528 49.3695 97.5876 50.4911 97.1717 51.7629C96.756 53.0347 96.4497 54.1092 96.4913 54.1509C96.5327 54.1926 97.5241 53.5259 98.6944 52.6694L100.822 51.1123L102.95 52.6694C104.12 53.5259 105.111 54.1926 105.153 54.1509C105.194 54.1092 104.888 53.0347 104.472 51.7629C104.056 50.4911 103.691 49.3695 103.66 49.2703C103.63 49.1712 104.594 48.3815 105.802 47.5155L108 45.9409L105.254 45.8678L102.508 45.7947L101.71 43.2721C101.272 41.8847 100.873 40.7496 100.825 40.7496C100.776 40.7496 100.377 41.8847 99.9377 43.2721ZM2.86139 62.3024C2.81865 62.4138 2.80436 62.7794 2.82944 63.1147L2.8751 63.7243L6.5946 63.7529L10.3141 63.7814L10.3994 65.3899C10.4464 66.2747 10.5676 67.2926 10.6688 67.6519C11.3277 69.9899 13.3189 72.2891 15.7953 73.5713L17.1924 74.2947L17.3632 75.4783C18.0724 80.3967 21.193 83.5059 26.1213 84.2046L27.2492 84.3645L27.9642 85.7717C28.5386 86.9021 28.9262 87.4297 29.9356 88.4552C30.9871 89.5237 31.3921 89.8248 32.4219 90.3042C33.0986 90.6192 34 90.9497 34.4251 91.0386C35.4665 91.2563 37.9679 91.2342 39.0676 90.9975L39.9614 90.8052L40.5555 91.4966C41.6517 92.7726 43.7326 94.1353 45.3816 94.6575C45.7494 94.7739 46.6746 94.9079 47.4375 94.9551C49.1843 95.063 50.7118 94.7127 52.635 93.7627L53.9686 93.1041L55.4793 93.8202C56.3103 94.214 57.4626 94.641 58.04 94.7693C61.2876 95.4901 64.3504 94.5161 66.966 91.9313L68.0758 90.8346L68.878 91.0033C70.0691 91.2537 72.7435 91.2402 73.7702 90.9786C76.5712 90.2648 78.9905 88.1172 80.38 85.1114L80.7235 84.3684L81.8928 84.2026C84.351 83.8541 86.8156 82.6475 88.1319 81.1484C89.4555 79.641 90.3198 77.6613 90.6374 75.4104L90.8019 74.2438L91.7172 73.8143C93.6478 72.9087 95.4783 71.3278 96.3718 69.7945C97.1844 68.4003 97.495 67.2813 97.5758 65.4574L97.6505 63.77L101.351 63.7757L105.051 63.7814L105.052 62.9405L105.052 62.0997H89.3182H73.5844L73.2199 62.6481C72.5392 63.6723 70.6841 65.6786 69.4507 66.7246C66.2576 69.4326 62.7127 71.1896 58.7057 72.0503C56.8913 72.44 52.8289 72.5982 51.0642 72.3479C44.7567 71.4532 39.1258 68.2503 35.4025 63.4392L34.3815 62.1199L18.6602 62.1098C5.3905 62.1013 2.92674 62.1313 2.86139 62.3024ZM35.7672 62.211C35.7672 62.5091 38.1638 65.0486 39.4613 66.1254C42.8352 68.9253 46.6129 70.6295 50.8253 71.252C52.9232 71.5622 56.5099 71.4656 58.4488 71.0471C62.3301 70.2092 65.7298 68.5135 68.8579 65.8551C69.9163 64.9558 72.0666 62.6329 72.2085 62.2357C72.2384 62.1523 65.2045 62.0997 54.0121 62.0997C43.9775 62.0997 35.7672 62.1498 35.7672 62.211ZM32.0008 64.0547C31.89 64.7015 32.3028 65.7645 32.9417 66.4768C33.6993 67.3215 34.6061 67.7335 35.4563 67.6191C35.9603 67.5514 36.015 67.5739 35.9501 67.8227C35.91 67.9765 35.9633 68.4113 36.0688 68.7887C36.5405 70.4781 38.8068 71.6321 40.3254 70.956C40.5245 70.8674 40.5806 70.9116 40.5806 71.1564C40.5806 71.6656 41.1228 72.582 41.673 73.0027C42.7331 73.8134 43.9891 73.9997 45.0722 73.5071C45.6572 73.2408 45.7041 73.2387 45.7866 73.4737C45.9735 74.0063 46.6033 74.6918 47.1894 75.0004C47.6496 75.2427 48.0593 75.3237 48.8459 75.3281C49.7875 75.3332 49.9555 75.2882 50.5432 74.8733L51.1955 74.4127L51.5072 74.8356C52.57 76.2766 55.4547 76.265 56.4842 74.8157L56.8049 74.364L57.1184 74.6591C58.4824 75.9438 61.2802 75.4268 62.0773 73.7428L62.319 73.232L62.9978 73.5331C64.7059 74.2906 67.0048 73.1348 67.3631 71.3386C67.4376 70.9654 67.5117 70.8814 67.6945 70.9636C67.824 71.022 68.2051 71.0977 68.5415 71.1319C70.2188 71.3029 71.9531 69.8087 71.9977 68.1543L72.0141 67.5497L72.5622 67.6225C74.2051 67.8408 76.1868 65.7871 75.9865 64.0738C75.9528 63.7849 76.0482 63.7809 83.8745 63.7472L91.7965 63.7131L91.6971 64.0396C91.4727 64.775 89.6547 68.1849 88.6307 69.7904C86.966 72.4007 85.3611 74.387 83.0287 76.723C76.6328 83.1294 69.1286 86.8912 59.8345 88.3506C57.4838 88.7197 52.08 88.805 49.5725 88.5124C41.7118 87.5953 34.9422 84.8742 28.7351 80.1366C26.8603 78.7057 23.1831 75.0523 21.7667 73.2134C20.1431 71.1058 18.5685 68.6281 17.428 66.3865C16.8628 65.2754 16.3575 64.224 16.3051 64.0502L16.21 63.7341L24.1289 63.7577C31.7753 63.7805 32.046 63.7907 32.0008 64.0547ZM29.4221 68.2917C28.4714 68.6064 27.9734 68.9178 27.2588 69.6445C26.3415 70.5773 25.9429 71.4475 25.8723 72.6716C25.8211 73.5578 25.8654 73.7681 26.2824 74.6174C27.0244 76.1285 28.5319 77.1617 29.9945 77.1617H30.5329L30.4879 76.5556C30.4445 75.9664 30.4241 75.9446 29.7607 75.7766C28.3197 75.4115 27.3439 74.1395 27.4922 72.8198C27.6467 71.4455 29.0623 69.9768 30.4308 69.7712C31.6617 69.5861 33.1094 70.5818 33.4827 71.8704C33.6931 72.5966 33.957 72.7487 34.6881 72.5647C35.1497 72.4485 35.1484 71.922 34.6838 70.9218C33.7685 68.951 31.2435 67.6889 29.4221 68.2917ZM76.1418 68.4521C75.3508 68.7567 74.7723 69.1897 73.2482 70.6181L71.8825 71.8979L72.402 72.446C72.6878 72.7474 74.0245 74.1786 75.3724 75.6263C76.7205 77.074 77.9066 78.2585 78.0086 78.2585C78.3713 78.2585 81.2151 75.3335 81.5745 74.5907C82.0675 73.5717 82.1196 72.3499 81.7161 71.2741C81.3469 70.2902 80.3357 69.1696 79.3682 68.6726C78.5618 68.2583 76.9343 68.1472 76.1418 68.4521ZM78.2872 70.0476C79.5674 70.6454 80.4012 71.8669 80.4012 73.1453C80.4012 74.0106 80.2622 74.266 79.194 75.3617L78.3115 76.2671L76.9861 74.8501C76.2571 74.0708 75.3043 73.0527 74.8686 72.5878L74.0766 71.7426L74.7207 71.0847C75.4293 70.3609 76.6041 69.7031 77.1843 69.7053C77.3892 69.706 77.8855 69.8602 78.2872 70.0476ZM35.7273 72.2884C34.249 74.6566 31.5373 79.1948 31.5379 79.2994C31.5385 79.4013 35.7761 82.079 36.2066 82.2495C36.3522 82.3071 36.9567 81.265 36.8645 81.1154C36.8244 81.0504 36.1016 80.5877 35.2582 80.0874C34.415 79.587 33.7251 79.111 33.7251 79.0297C33.7251 78.9148 34.6178 77.3146 34.8396 77.0314C34.8643 77 35.449 77.3127 36.1393 77.7261C36.8293 78.1396 37.4481 78.4778 37.5142 78.4778C37.5804 78.4778 37.7688 78.2499 37.9328 77.971L38.2311 77.4643L36.9627 76.7042C36.265 76.2861 35.669 75.9242 35.6382 75.8997C35.6074 75.8753 35.8586 75.3891 36.1961 74.8194L36.8101 73.7835L37.492 74.1819C37.867 74.4011 38.6318 74.8653 39.1913 75.2132L40.2085 75.8456L40.5326 75.3072C40.7109 75.0111 40.8252 74.7177 40.7867 74.6553C40.7482 74.5928 39.8165 74.0009 38.7161 73.3398C37.6155 72.6788 36.5716 72.0459 36.3958 71.9334C36.0972 71.7423 36.0536 71.7656 35.7273 72.2884ZM69.1792 73.3822C67.941 74.0913 66.8645 74.7348 66.7872 74.8124C66.6971 74.9027 67.396 76.2798 68.7364 78.6532C69.8856 80.688 70.874 82.4096 70.9328 82.4786C71.0093 82.569 75.429 80.2182 75.8532 79.8615C75.9443 79.7849 75.283 78.6147 75.181 78.6722C75.1238 78.7044 74.375 79.1343 73.5169 79.6278C72.6586 80.1214 71.9232 80.5251 71.8823 80.5251C71.7875 80.5251 70.5856 78.4676 70.6518 78.4186C70.679 78.3984 71.2592 78.0656 71.9411 77.6788C72.623 77.2922 73.2002 76.9599 73.2237 76.9406C73.3219 76.8598 72.7492 75.8459 72.607 75.8488C72.5215 75.8506 71.895 76.1754 71.2149 76.5708C70.5346 76.9662 69.9664 77.2774 69.9524 77.2622C69.9383 77.2471 69.6626 76.7777 69.34 76.2191L68.7533 75.2032L70.3808 74.2722C71.2758 73.7601 72.0348 73.3145 72.0673 73.282C72.1555 73.1935 71.7888 72.3647 71.5972 72.2193C71.4914 72.1391 70.6088 72.5634 69.1792 73.3822ZM41.0216 75.8822C40.0666 78.6519 38.5385 83.2199 38.5385 83.3049C38.5385 83.3591 38.808 83.4844 39.1372 83.5833C39.4664 83.6821 39.8205 83.7958 39.9241 83.8355C40.0541 83.8856 40.2803 83.403 40.6543 82.2779C41.1854 80.6797 41.2036 80.6496 41.5812 80.7423C41.793 80.7943 42.0423 80.9147 42.1352 81.01C42.2281 81.1052 42.5098 81.9728 42.7611 82.938C43.0702 84.1245 43.3151 84.7749 43.5177 84.9468C43.8058 85.1911 44.9298 85.5726 45.0391 85.4631C45.1002 85.4018 44.1534 81.9241 43.9482 81.456C43.8248 81.1745 43.865 81.1353 44.3589 81.0561C45.5341 80.8677 46.3642 79.9456 46.5028 78.6748C46.6587 77.243 45.7252 76.3703 43.0997 75.4932C42.2353 75.2044 41.4851 74.9682 41.4325 74.9682C41.3798 74.9682 41.1949 75.3796 41.0216 75.8822ZM64.5507 75.5837L63.7972 75.8756L64.1643 76.8476C64.3663 77.3824 65.0568 79.2346 65.6989 80.9638C66.3409 82.693 66.889 84.1321 66.9169 84.1616C67.0142 84.2649 68.4404 83.6833 68.4404 83.5403C68.4404 83.3471 65.5128 75.5059 65.396 75.386C65.3456 75.3343 64.9652 75.4232 64.5507 75.5837ZM60.1627 76.8315C58.1607 77.2426 57.6463 77.3964 57.6453 77.5841C57.6441 77.8153 59.2705 85.9631 59.3365 86.0564C59.3904 86.1326 60.6443 85.9204 60.8335 85.8031C60.9632 85.7228 60.9365 85.3562 60.725 84.3172C60.2501 81.9847 60.1156 82.2653 61.8766 81.9124L63.4081 81.6055L63.3788 80.9751C63.3626 80.6282 63.3247 80.3196 63.2945 80.2894C63.2643 80.259 62.5429 80.3803 61.6915 80.5589C60.8401 80.7374 60.1077 80.8478 60.0641 80.8041C59.9633 80.7029 59.5 78.4718 59.5663 78.4062C59.5934 78.3793 60.4334 78.1843 61.4327 77.9729C62.432 77.7616 63.2712 77.5672 63.2973 77.5409C63.3235 77.5147 63.3015 77.2213 63.2484 76.8889C63.1799 76.4584 63.0839 76.2887 62.9154 76.2995C62.7853 76.3079 61.5465 76.5473 60.1627 76.8315ZM43.7469 77.1119C44.4534 77.4061 44.8106 77.8675 44.8106 78.4857C44.8106 79.1774 44.3598 79.7558 43.7278 79.8747C43.1634 79.9808 41.5608 79.5306 41.6485 79.2905C41.6796 79.2055 41.8876 78.5939 42.1106 77.9317C42.559 76.6001 42.5401 76.6096 43.7469 77.1119ZM46.997 77.0338C46.9961 77.1443 46.9559 77.4741 46.9077 77.7666L46.8199 78.2983L47.9794 78.4012C48.6169 78.4577 49.2221 78.5558 49.3242 78.6191C49.4724 78.7109 49.433 79.4222 49.1283 82.1521C48.9186 84.0321 48.7473 85.6791 48.7479 85.8123C48.7487 85.9923 48.9389 86.0807 49.4876 86.1564C49.8938 86.2124 50.2677 86.2167 50.3183 86.1659C50.3689 86.1152 50.5905 84.4563 50.8106 82.4797C51.0307 80.503 51.2362 78.8601 51.2674 78.8289C51.2985 78.7976 51.871 78.8409 52.5393 78.925C53.9099 79.0973 53.994 79.0541 53.9978 78.1791L54 77.661L50.9004 77.3242C49.1957 77.1389 47.6203 76.9526 47.3997 76.9101C47.1195 76.8561 46.9982 76.8934 46.997 77.0338ZM54.583 77.7101C54.5819 78.4743 54.8918 84.9545 54.9608 85.6067L55.042 86.3744H55.8338H56.6255L56.6277 85.6798C56.6289 85.2979 56.5517 83.2908 56.4563 81.2197L56.2829 77.4542H55.4333C54.7213 77.4542 54.5835 77.4957 54.583 77.7101Z" fill="#7681B0"/>
</svg>
